<mxfile host="app.diagrams.net" modified="2023-04-24T23:16:59.172Z" agent="Mozilla/5.0 (Macintosh; Intel Mac OS X 10_15_7) AppleWebKit/537.36 (KHTML, like Gecko) Chrome/112.0.0.0 Safari/537.36" etag="7vOrE8paXHZHh21YoC-v" version="21.2.1" type="github">
  <diagram name="Page-1" id="AYoVV-OsY1Wz2RUMu2Mf">
    <mxGraphModel dx="921" dy="886" grid="1" gridSize="10" guides="1" tooltips="1" connect="1" arrows="1" fold="1" page="1" pageScale="1" pageWidth="850" pageHeight="1100" math="0" shadow="0">
      <root>
        <mxCell id="0" />
        <mxCell id="1" parent="0" />
        <mxCell id="CmZdVK3zWLwExLf1IJCk-1" value="Am I hidden?" style="rounded=0;whiteSpace=wrap;html=1;" vertex="1" parent="1">
          <mxGeometry x="340" y="170" width="120" height="60" as="geometry" />
        </mxCell>
        <mxCell id="CmZdVK3zWLwExLf1IJCk-2" value="2d20&lt;br&gt;3d6 + 3" style="rounded=0;whiteSpace=wrap;html=1;" vertex="1" parent="1">
          <mxGeometry x="650" y="660" width="120" height="60" as="geometry" />
        </mxCell>
        <mxCell id="CmZdVK3zWLwExLf1IJCk-3" value="1d20&lt;br&gt;1d6 + 3" style="rounded=0;whiteSpace=wrap;html=1;" vertex="1" parent="1">
          <mxGeometry x="250" y="660" width="120" height="60" as="geometry" />
        </mxCell>
        <mxCell id="CmZdVK3zWLwExLf1IJCk-4" value="" style="endArrow=classic;html=1;rounded=0;exitX=0.5;exitY=1;exitDx=0;exitDy=0;entryX=0.5;entryY=0;entryDx=0;entryDy=0;" edge="1" parent="1" source="CmZdVK3zWLwExLf1IJCk-1" target="CmZdVK3zWLwExLf1IJCk-17">
          <mxGeometry width="50" height="50" relative="1" as="geometry">
            <mxPoint x="230" y="440" as="sourcePoint" />
            <mxPoint x="580" y="480" as="targetPoint" />
          </mxGeometry>
        </mxCell>
        <mxCell id="CmZdVK3zWLwExLf1IJCk-10" value="Yes&lt;br&gt;" style="edgeLabel;html=1;align=center;verticalAlign=middle;resizable=0;points=[];" vertex="1" connectable="0" parent="CmZdVK3zWLwExLf1IJCk-4">
          <mxGeometry x="-0.3916" y="-2" relative="1" as="geometry">
            <mxPoint as="offset" />
          </mxGeometry>
        </mxCell>
        <mxCell id="CmZdVK3zWLwExLf1IJCk-5" value="" style="endArrow=classic;html=1;rounded=0;exitX=0.5;exitY=1;exitDx=0;exitDy=0;entryX=0.5;entryY=0;entryDx=0;entryDy=0;" edge="1" parent="1" source="CmZdVK3zWLwExLf1IJCk-1" target="CmZdVK3zWLwExLf1IJCk-6">
          <mxGeometry width="50" height="50" relative="1" as="geometry">
            <mxPoint x="210" y="270" as="sourcePoint" />
            <mxPoint x="320" y="330" as="targetPoint" />
          </mxGeometry>
        </mxCell>
        <mxCell id="CmZdVK3zWLwExLf1IJCk-11" value="No" style="edgeLabel;html=1;align=center;verticalAlign=middle;resizable=0;points=[];" vertex="1" connectable="0" parent="CmZdVK3zWLwExLf1IJCk-5">
          <mxGeometry x="0.0703" y="1" relative="1" as="geometry">
            <mxPoint as="offset" />
          </mxGeometry>
        </mxCell>
        <mxCell id="CmZdVK3zWLwExLf1IJCk-6" value="Is another party member near the target?" style="rounded=0;whiteSpace=wrap;html=1;" vertex="1" parent="1">
          <mxGeometry x="280" y="300" width="120" height="60" as="geometry" />
        </mxCell>
        <mxCell id="CmZdVK3zWLwExLf1IJCk-7" value="" style="endArrow=classic;html=1;rounded=0;exitX=0.5;exitY=1;exitDx=0;exitDy=0;entryX=0.5;entryY=0;entryDx=0;entryDy=0;" edge="1" parent="1" source="CmZdVK3zWLwExLf1IJCk-6" target="CmZdVK3zWLwExLf1IJCk-17">
          <mxGeometry width="50" height="50" relative="1" as="geometry">
            <mxPoint x="210" y="270" as="sourcePoint" />
            <mxPoint x="550" y="480" as="targetPoint" />
          </mxGeometry>
        </mxCell>
        <mxCell id="CmZdVK3zWLwExLf1IJCk-13" value="Yes" style="edgeLabel;html=1;align=center;verticalAlign=middle;resizable=0;points=[];" vertex="1" connectable="0" parent="CmZdVK3zWLwExLf1IJCk-7">
          <mxGeometry x="-0.2252" y="-1" relative="1" as="geometry">
            <mxPoint as="offset" />
          </mxGeometry>
        </mxCell>
        <mxCell id="CmZdVK3zWLwExLf1IJCk-8" value="" style="endArrow=classic;html=1;rounded=0;exitX=0.5;exitY=1;exitDx=0;exitDy=0;entryX=0.5;entryY=0;entryDx=0;entryDy=0;" edge="1" parent="1" source="CmZdVK3zWLwExLf1IJCk-6" target="CmZdVK3zWLwExLf1IJCk-20">
          <mxGeometry width="50" height="50" relative="1" as="geometry">
            <mxPoint x="340" y="440" as="sourcePoint" />
            <mxPoint x="240" y="480" as="targetPoint" />
          </mxGeometry>
        </mxCell>
        <mxCell id="CmZdVK3zWLwExLf1IJCk-12" value="No" style="edgeLabel;html=1;align=center;verticalAlign=middle;resizable=0;points=[];" vertex="1" connectable="0" parent="CmZdVK3zWLwExLf1IJCk-8">
          <mxGeometry relative="1" as="geometry">
            <mxPoint as="offset" />
          </mxGeometry>
        </mxCell>
        <mxCell id="CmZdVK3zWLwExLf1IJCk-9" value="2d20&lt;br&gt;(3d6 * 2) + 3" style="rounded=0;whiteSpace=wrap;html=1;" vertex="1" parent="1">
          <mxGeometry x="450" y="660" width="120" height="60" as="geometry" />
        </mxCell>
        <mxCell id="CmZdVK3zWLwExLf1IJCk-16" value="1d20&lt;br&gt;(1d6 * 2) + 3" style="rounded=0;whiteSpace=wrap;html=1;" vertex="1" parent="1">
          <mxGeometry x="50" y="660" width="120" height="60" as="geometry" />
        </mxCell>
        <mxCell id="CmZdVK3zWLwExLf1IJCk-17" value="Has the target taken a turn in combat?" style="rounded=0;whiteSpace=wrap;html=1;" vertex="1" parent="1">
          <mxGeometry x="532" y="420" width="120" height="60" as="geometry" />
        </mxCell>
        <mxCell id="CmZdVK3zWLwExLf1IJCk-18" value="Natural 20?" style="rounded=0;whiteSpace=wrap;html=1;" vertex="1" parent="1">
          <mxGeometry x="227" y="540" width="120" height="60" as="geometry" />
        </mxCell>
        <mxCell id="CmZdVK3zWLwExLf1IJCk-19" value="Natural 20?" style="rounded=0;whiteSpace=wrap;html=1;" vertex="1" parent="1">
          <mxGeometry x="632" y="540" width="120" height="60" as="geometry" />
        </mxCell>
        <mxCell id="CmZdVK3zWLwExLf1IJCk-20" value="Has the target taken a turn in combat?" style="rounded=0;whiteSpace=wrap;html=1;" vertex="1" parent="1">
          <mxGeometry x="132" y="420" width="120" height="60" as="geometry" />
        </mxCell>
        <mxCell id="CmZdVK3zWLwExLf1IJCk-21" value="" style="endArrow=classic;html=1;rounded=0;exitX=0.5;exitY=1;exitDx=0;exitDy=0;entryX=0.5;entryY=0;entryDx=0;entryDy=0;" edge="1" parent="1" source="CmZdVK3zWLwExLf1IJCk-20" target="CmZdVK3zWLwExLf1IJCk-16">
          <mxGeometry width="50" height="50" relative="1" as="geometry">
            <mxPoint x="275" y="440" as="sourcePoint" />
            <mxPoint x="-15" y="590" as="targetPoint" />
          </mxGeometry>
        </mxCell>
        <mxCell id="CmZdVK3zWLwExLf1IJCk-22" value="No" style="edgeLabel;html=1;align=center;verticalAlign=middle;resizable=0;points=[];" vertex="1" connectable="0" parent="CmZdVK3zWLwExLf1IJCk-21">
          <mxGeometry relative="1" as="geometry">
            <mxPoint as="offset" />
          </mxGeometry>
        </mxCell>
        <mxCell id="CmZdVK3zWLwExLf1IJCk-23" value="" style="endArrow=classic;html=1;rounded=0;exitX=0.5;exitY=1;exitDx=0;exitDy=0;entryX=0.5;entryY=0;entryDx=0;entryDy=0;" edge="1" parent="1" source="CmZdVK3zWLwExLf1IJCk-17" target="CmZdVK3zWLwExLf1IJCk-9">
          <mxGeometry width="50" height="50" relative="1" as="geometry">
            <mxPoint x="245" y="560" as="sourcePoint" />
            <mxPoint x="460" y="630" as="targetPoint" />
          </mxGeometry>
        </mxCell>
        <mxCell id="CmZdVK3zWLwExLf1IJCk-24" value="No" style="edgeLabel;html=1;align=center;verticalAlign=middle;resizable=0;points=[];" vertex="1" connectable="0" parent="CmZdVK3zWLwExLf1IJCk-23">
          <mxGeometry relative="1" as="geometry">
            <mxPoint as="offset" />
          </mxGeometry>
        </mxCell>
        <mxCell id="CmZdVK3zWLwExLf1IJCk-25" value="" style="endArrow=classic;html=1;rounded=0;exitX=0.5;exitY=1;exitDx=0;exitDy=0;entryX=0.5;entryY=0;entryDx=0;entryDy=0;" edge="1" parent="1" source="CmZdVK3zWLwExLf1IJCk-20" target="CmZdVK3zWLwExLf1IJCk-18">
          <mxGeometry width="50" height="50" relative="1" as="geometry">
            <mxPoint x="377" y="270" as="sourcePoint" />
            <mxPoint x="487" y="500" as="targetPoint" />
          </mxGeometry>
        </mxCell>
        <mxCell id="CmZdVK3zWLwExLf1IJCk-26" value="Yes&lt;br&gt;" style="edgeLabel;html=1;align=center;verticalAlign=middle;resizable=0;points=[];" vertex="1" connectable="0" parent="CmZdVK3zWLwExLf1IJCk-25">
          <mxGeometry x="-0.3916" y="-2" relative="1" as="geometry">
            <mxPoint as="offset" />
          </mxGeometry>
        </mxCell>
        <mxCell id="CmZdVK3zWLwExLf1IJCk-27" value="" style="endArrow=classic;html=1;rounded=0;entryX=0.5;entryY=0;entryDx=0;entryDy=0;exitX=0.5;exitY=1;exitDx=0;exitDy=0;" edge="1" parent="1" source="CmZdVK3zWLwExLf1IJCk-17" target="CmZdVK3zWLwExLf1IJCk-19">
          <mxGeometry width="50" height="50" relative="1" as="geometry">
            <mxPoint x="552" y="550" as="sourcePoint" />
            <mxPoint x="372" y="600" as="targetPoint" />
          </mxGeometry>
        </mxCell>
        <mxCell id="CmZdVK3zWLwExLf1IJCk-28" value="Yes&lt;br&gt;" style="edgeLabel;html=1;align=center;verticalAlign=middle;resizable=0;points=[];" vertex="1" connectable="0" parent="CmZdVK3zWLwExLf1IJCk-27">
          <mxGeometry x="-0.3916" y="-2" relative="1" as="geometry">
            <mxPoint as="offset" />
          </mxGeometry>
        </mxCell>
        <mxCell id="CmZdVK3zWLwExLf1IJCk-29" value="" style="endArrow=classic;html=1;rounded=0;exitX=0.5;exitY=1;exitDx=0;exitDy=0;entryX=0.5;entryY=0;entryDx=0;entryDy=0;" edge="1" parent="1" source="CmZdVK3zWLwExLf1IJCk-19" target="CmZdVK3zWLwExLf1IJCk-2">
          <mxGeometry width="50" height="50" relative="1" as="geometry">
            <mxPoint x="500" y="440" as="sourcePoint" />
            <mxPoint x="503" y="759" as="targetPoint" />
          </mxGeometry>
        </mxCell>
        <mxCell id="CmZdVK3zWLwExLf1IJCk-30" value="No" style="edgeLabel;html=1;align=center;verticalAlign=middle;resizable=0;points=[];" vertex="1" connectable="0" parent="CmZdVK3zWLwExLf1IJCk-29">
          <mxGeometry relative="1" as="geometry">
            <mxPoint as="offset" />
          </mxGeometry>
        </mxCell>
        <mxCell id="CmZdVK3zWLwExLf1IJCk-31" value="" style="endArrow=classic;html=1;rounded=0;entryX=0.5;entryY=0;entryDx=0;entryDy=0;exitX=0.5;exitY=1;exitDx=0;exitDy=0;" edge="1" parent="1" source="CmZdVK3zWLwExLf1IJCk-19" target="CmZdVK3zWLwExLf1IJCk-9">
          <mxGeometry width="50" height="50" relative="1" as="geometry">
            <mxPoint x="500" y="440" as="sourcePoint" />
            <mxPoint x="620" y="540" as="targetPoint" />
          </mxGeometry>
        </mxCell>
        <mxCell id="CmZdVK3zWLwExLf1IJCk-32" value="Yes&lt;br&gt;" style="edgeLabel;html=1;align=center;verticalAlign=middle;resizable=0;points=[];" vertex="1" connectable="0" parent="CmZdVK3zWLwExLf1IJCk-31">
          <mxGeometry x="-0.3916" y="-2" relative="1" as="geometry">
            <mxPoint as="offset" />
          </mxGeometry>
        </mxCell>
        <mxCell id="CmZdVK3zWLwExLf1IJCk-33" value="" style="endArrow=classic;html=1;rounded=0;exitX=0.5;exitY=1;exitDx=0;exitDy=0;entryX=0.5;entryY=0;entryDx=0;entryDy=0;" edge="1" parent="1" source="CmZdVK3zWLwExLf1IJCk-18" target="CmZdVK3zWLwExLf1IJCk-16">
          <mxGeometry width="50" height="50" relative="1" as="geometry">
            <mxPoint x="225" y="680" as="sourcePoint" />
            <mxPoint x="155" y="730" as="targetPoint" />
          </mxGeometry>
        </mxCell>
        <mxCell id="CmZdVK3zWLwExLf1IJCk-34" value="Yes&lt;br&gt;" style="edgeLabel;html=1;align=center;verticalAlign=middle;resizable=0;points=[];" vertex="1" connectable="0" parent="CmZdVK3zWLwExLf1IJCk-33">
          <mxGeometry x="-0.3916" y="-2" relative="1" as="geometry">
            <mxPoint as="offset" />
          </mxGeometry>
        </mxCell>
        <mxCell id="CmZdVK3zWLwExLf1IJCk-35" value="" style="endArrow=classic;html=1;rounded=0;entryX=0.5;entryY=0;entryDx=0;entryDy=0;exitX=0.5;exitY=1;exitDx=0;exitDy=0;" edge="1" parent="1" source="CmZdVK3zWLwExLf1IJCk-18" target="CmZdVK3zWLwExLf1IJCk-3">
          <mxGeometry width="50" height="50" relative="1" as="geometry">
            <mxPoint x="245" y="650" as="sourcePoint" />
            <mxPoint x="295" y="720" as="targetPoint" />
          </mxGeometry>
        </mxCell>
        <mxCell id="CmZdVK3zWLwExLf1IJCk-36" value="No" style="edgeLabel;html=1;align=center;verticalAlign=middle;resizable=0;points=[];" vertex="1" connectable="0" parent="CmZdVK3zWLwExLf1IJCk-35">
          <mxGeometry relative="1" as="geometry">
            <mxPoint as="offset" />
          </mxGeometry>
        </mxCell>
      </root>
    </mxGraphModel>
  </diagram>
</mxfile>
